<?xml version="1.0" encoding="UTF-8" standalone="no"?>
<svg
   xmlns:osb="http://www.openswatchbook.org/uri/2009/osb"
   xmlns:dc="http://purl.org/dc/elements/1.1/"
   xmlns:cc="http://creativecommons.org/ns#"
   xmlns:rdf="http://www.w3.org/1999/02/22-rdf-syntax-ns#"
   xmlns:svg="http://www.w3.org/2000/svg"
   xmlns="http://www.w3.org/2000/svg"
   enable-background="new"
   version="1.1"
   id="svg2"
   xml:space="preserve"
   width="510mm"
   height="510mm"
   viewBox="0 0 1927.559 1927.559"><metadata
     id="metadata8"><rdf:RDF><cc:Work
         rdf:about=""><dc:format>image/svg+xml</dc:format><dc:type
           rdf:resource="http://purl.org/dc/dcmitype/StillImage" /><dc:title></dc:title></cc:Work></rdf:RDF></metadata><defs
     id="defs6"><linearGradient
       osb:paint="solid"
       id="linearGradient4681"><stop
         id="stop4679"
         offset="0"
         style="stop-color:#000b00;stop-opacity:1;" /></linearGradient><linearGradient
       osb:paint="solid"
       id="linearGradient6036"><stop
         id="stop6034"
         offset="0"
         style="stop-color:#ffffff;stop-opacity:1;" /></linearGradient><clipPath
       id="clipPath18"
       clipPathUnits="userSpaceOnUse"><path
         id="path16"
         d="M 0,980 H 1400 V 0 H 0 Z" /></clipPath><filter
       id="filter4730"
       style="color-interpolation-filters:sRGB;"><feFlood
         id="feFlood4720"
         result="flood"
         flood-color="rgb(0,0,0)"
         flood-opacity="0.498039" /><feComposite
         id="feComposite4722"
         result="composite1"
         operator="in"
         in2="SourceGraphic"
         in="flood" /><feGaussianBlur
         id="feGaussianBlur4724"
         result="blur"
         stdDeviation="3"
         in="composite1" /><feOffset
         id="feOffset4726"
         result="offset"
         dy="-3.5"
         dx="0" /><feComposite
         id="feComposite4728"
         result="fbSourceGraphic"
         operator="over"
         in2="offset"
         in="SourceGraphic" /><feColorMatrix
         id="feColorMatrix4732"
         values="0 0 0 -1 0 0 0 0 -1 0 0 0 0 -1 0 0 0 0 1 0"
         in="fbSourceGraphic"
         result="fbSourceGraphicAlpha" /><feFlood
         in="fbSourceGraphic"
         result="flood"
         flood-color="rgb(0,0,0)"
         flood-opacity="0.498039"
         id="feFlood4734" /><feComposite
         result="composite1"
         operator="in"
         in="flood"
         id="feComposite4736"
         in2="fbSourceGraphic" /><feGaussianBlur
         result="blur"
         stdDeviation="3"
         in="composite1"
         id="feGaussianBlur4738" /><feOffset
         result="offset"
         dy="-4"
         dx="0"
         id="feOffset4740" /><feComposite
         result="fbSourceGraphic"
         operator="over"
         in="fbSourceGraphic"
         id="feComposite4742"
         in2="offset" /><feColorMatrix
         id="feColorMatrix4543"
         values="0 0 0 -1 0 0 0 0 -1 0 0 0 0 -1 0 0 0 0 1 0"
         in="fbSourceGraphic"
         result="fbSourceGraphicAlpha" /><feFlood
         in="fbSourceGraphic"
         result="flood"
         flood-color="rgb(0,0,0)"
         flood-opacity="0.498039"
         id="feFlood4545" /><feComposite
         result="composite1"
         operator="in"
         in="flood"
         id="feComposite4547"
         in2="fbSourceGraphic" /><feGaussianBlur
         result="blur"
         stdDeviation="0"
         in="composite1"
         id="feGaussianBlur4549" /><feOffset
         result="offset"
         dy="0"
         dx="0"
         id="feOffset4551" /><feComposite
         result="composite2"
         operator="over"
         in="fbSourceGraphic"
         id="feComposite4553"
         in2="offset" /></filter><filter
       id="filter4730-4"
       style="color-interpolation-filters:sRGB"><feFlood
         id="feFlood4720-8"
         result="flood"
         flood-color="rgb(0,0,0)"
         flood-opacity="0.498039" /><feComposite
         id="feComposite4722-1"
         result="composite1"
         operator="in"
         in2="SourceGraphic"
         in="flood" /><feGaussianBlur
         id="feGaussianBlur4724-0"
         result="blur"
         stdDeviation="3"
         in="composite1" /><feOffset
         id="feOffset4726-3"
         result="offset"
         dy="-3.5"
         dx="0" /><feComposite
         id="feComposite4728-0"
         result="fbSourceGraphic"
         operator="over"
         in2="offset"
         in="SourceGraphic" /><feColorMatrix
         id="feColorMatrix4732-4"
         values="0 0 0 -1 0 0 0 0 -1 0 0 0 0 -1 0 0 0 0 1 0"
         in="fbSourceGraphic"
         result="fbSourceGraphicAlpha" /><feFlood
         in="fbSourceGraphic"
         result="flood"
         flood-color="rgb(0,0,0)"
         flood-opacity="0.498039"
         id="feFlood4734-4" /><feComposite
         result="composite1"
         operator="in"
         in="flood"
         id="feComposite4736-4"
         in2="fbSourceGraphic" /><feGaussianBlur
         result="blur"
         stdDeviation="3"
         in="composite1"
         id="feGaussianBlur4738-4" /><feOffset
         result="offset"
         dy="-4"
         dx="0"
         id="feOffset4740-7" /><feComposite
         result="composite2"
         operator="over"
         in="fbSourceGraphic"
         id="feComposite4742-6"
         in2="offset" /></filter><filter
       id="filter4730-1"
       style="color-interpolation-filters:sRGB"><feFlood
         id="feFlood4720-7"
         result="flood"
         flood-color="rgb(0,0,0)"
         flood-opacity="0.498039" /><feComposite
         id="feComposite4722-8"
         result="composite1"
         operator="in"
         in2="SourceGraphic"
         in="flood" /><feGaussianBlur
         id="feGaussianBlur4724-5"
         result="blur"
         stdDeviation="3"
         in="composite1" /><feOffset
         id="feOffset4726-7"
         result="offset"
         dy="-3.5"
         dx="0" /><feComposite
         id="feComposite4728-4"
         result="fbSourceGraphic"
         operator="over"
         in2="offset"
         in="SourceGraphic" /><feColorMatrix
         id="feColorMatrix4732-1"
         values="0 0 0 -1 0 0 0 0 -1 0 0 0 0 -1 0 0 0 0 1 0"
         in="fbSourceGraphic"
         result="fbSourceGraphicAlpha" /><feFlood
         in="fbSourceGraphic"
         result="flood"
         flood-color="rgb(0,0,0)"
         flood-opacity="0.498039"
         id="feFlood4734-8" /><feComposite
         result="composite1"
         operator="in"
         in="flood"
         id="feComposite4736-5"
         in2="fbSourceGraphic" /><feGaussianBlur
         result="blur"
         stdDeviation="3"
         in="composite1"
         id="feGaussianBlur4738-9" /><feOffset
         result="offset"
         dy="-4"
         dx="0"
         id="feOffset4740-75" /><feComposite
         result="composite2"
         operator="over"
         in="fbSourceGraphic"
         id="feComposite4742-3"
         in2="offset" /></filter></defs><g
     style="display:inline"
     transform="matrix(1.3333333,0,0,-1.3333333,0,1927.5591)"
     id="g10"><path
       style="display:inline;opacity:1;fill:#ffcc00;fill-opacity:1;fill-rule:evenodd;stroke:#000000;stroke-width:30;stroke-linejoin:miter;stroke-miterlimit:4;stroke-dasharray:none;stroke-opacity:1"
       d="m 492.84648,1155.8278 c -0.2713,0.013 -0.5163,0.01 -0.73363,-0.013 16.85915,-10.2241 36.92776,-15.5542 25.16032,-16.2393 -32.5558,-1.8955 -56.79141,-11.9104 -79.5129,-13.1233 -21.40645,-4.5046 -48.26508,-11.8876 -74.3657,-18.7598 -22.4067,-5.8995 -43.76773,-14.0386 -70.35022,-24.3529 -22.07971,-8.5671 -57.88843,-36.5167 -57.88843,-36.5167 15.74379,-2.8485 25.89951,-2.5925 29.61837,-2.1678 6.53892,0.7467 1.27531,-2.0704 -8.9895,-11.2311 -19.57408,-15.051 -29.82372,-25.7261 -50.50211,-53.98101 -21.05502,-28.76954 -46.71819,-51.042 -57.2692,-62.97172 9.58011,0.90905 35.96839,4.00966 27.96837,2.75798 -14.95867,-2.34043 -22.103,-1.25181 -0.26499,0.90227 2.1775,0.21478 3.2818,-1.62342 2.34659,-3.5247 C 120.78363,842.27469 148.8997,747.49453 152.06711,715.25895 l 22.10106,27.12578 c -7.48226,-89.82251 9.20541,-89.50351 37.29441,-129.60083 17.84867,-27.96353 13.57336,-12.40019 27.15495,-55.75302 12.59573,22.24835 11.48936,38.81972 13.28499,38.98433 l 3.23811,-3.70057 c 26.13016,-30.42924 36.30222,-51.98036 53.74506,-84.34238 0,0 9.89587,23.56025 8.25365,27.53185 14.01538,-9.70948 2.0716,-1.65728 9.16701,-9.19219 3.33789,-24.21736 43.0108,-109.48265 44.57114,-137.41158 0.40694,-7.28833 -18.3324,-25.68315 -18.16551,-27.93165 0.16552,-2.22817 13.16315,10.33059 13.32534,8.00569 0.19931,-2.85604 0.39764,-5.79016 0.59499,-8.80875 0.61888,-9.46005 -6.19993,-28.96792 -1.32088,-41.92156 0,0 5.60244,-12.11665 47.92877,-6.46473 12.86071,1.33144 43.04967,-14.23428 65.51496,-22.46126 10.54397,-2.74195 40.22565,-12.05976 47.98797,-7.19126 3.19458,2.00366 3.00364,2.19733 3.38473,2.268 0,0 6.16398,1.39495 14.73112,-1.98701 -3.85714,4.74419 -20.4529,12.14531 -14.73112,1.98701 -5.00398,8.35375 8.31514,4.61306 3.50426,6.60773 0,0 -2.93694,-0.0293 -2.98826,1.48783 -0.21743,6.37223 -6.03637,11.61539 -22.662,16.37129 -4.49953,2.31419 -5.18179,1.71062 3.10701,0.30835 23.36888,-2.87947 37.95853,-2.84512 54.01651,-4.64628 1.34864,-0.15062 2.69928,-1.99952 2.69928,-1.99952 0.79533,-0.84251 5.85302,-1.59168 8.24502,-1.64921 4.05508,-0.0975 12.28237,0.25606 16.16037,0.90397 2.81192,0.46989 9.80071,2.45599 9.80071,2.45599 11.5721,3.31213 19.7993,-6.5458 19.7993,-6.5458 -2.57104,15.47134 -14.68224,16.43509 -14.68224,16.43509 -2.31187,6.97217 -0.29246,4.61601 -2.31187,6.97217 -9.92655,11.58188 -48.31592,13.85197 -57.54852,13.14648 0,0 1.18489,-0.47679 0,0 0,0 -2.10077,0.54734 0,0 2.49063,-0.35103 4.79566,-0.14183 5.96144,0.30542 5.18468,1.98911 8.01897,7.90035 8.01897,7.90035 9.89341,2.70605 16.91593,-1.65397 18.12006,-1.13785 -12.91589,13.0069 -22.61493,4.64679 -25.11266,11.34657 -2.81716,2.17206 -4.14729,2.03086 -14.45968,2.62622 -11.39993,0.65792 -29.32401,1.68448 -53.93796,0.67901 -6.2697,-0.50161 -18.06637,-4.06393 -28.77911,8.87238 2.73399,-3.16331 0,0 0,0 -30.71348,27.25916 0.14446,132.46977 3.53222,154.91782 16.79118,28.47233 50.08608,4.399 66.64753,-18.87217 6.42499,4.41906 6.62847,29.32765 6.62847,29.32765 4.65565,-13.37073 58.6748,-127.80064 68.63661,-161.53015 1.65965,-10.78689 5.1862,-28.39514 14.1191,-34.00268 3.82374,-2.40025 22.78383,-3.10833 22.78383,-3.10833 l 18.28338,0.7767 c 34.35094,-4.76984 44.18318,-11.85471 73.80277,-22.49549 6.93321,-1.98618 13.38792,-1.35014 17.74402,-2.40846 14.26067,-1.27219 18.41304,6.07897 18.41304,6.07897 8.1935,-1.771 15.91687,-11.82457 15.91687,-11.82457 1.37318,8.70217 -13.91183,19.7122 -13.91183,19.7122 -8.17685,17.60259 -29.67578,19.35479 -25.00125,17.19681 0,0 12.13913,-7.6499 59.73427,1.70242 0.1029,-0.54815 17.85491,-2.47364 26.47737,0.10343 7.15178,2.13751 13.62694,5.75954 12.18686,9.00615 -0.75105,1.69321 0.11979,-0.33555 0,0 -0.25072,-0.0167 0.23995,0.0322 0,0 0,0 -0.18035,0.50542 0,0 9.1494,0.69574 25.06796,-5.31291 25.06796,-5.31291 -3.95425,8.39643 -22.63644,12.61968 -23.45267,12.59308 0.0294,-0.0209 0.0583,-0.0444 0.0906,-0.0665 -0.12732,0.0444 4.82395,-2.83584 4.88124,-2.83374 10.75086,-1.16707 -10.06927,11.88541 -27.92145,16.51906 -22.03491,0.81666 -12.46448,2.22718 -27.8354,1.25518 -16.59209,-0.5319 -24.16984,-3.40347 -43.78462,-3.22444 -6.07314,-1.48507 5.90082,-1.64205 5.22375,4.86444 -0.67706,6.50652 13.52264,7.10197 13.52264,7.10197 -5.90659,5.25877 -16.19822,3.49589 -16.19822,3.49589 -10.53805,2.15123 -10.82937,7.64203 -26.42732,4.6244 -12.90253,-2.49606 -46.05966,-3.87105 -52.74749,4.62692 -20.22835,25.70341 -11.99893,91.78057 -13.20585,113.21792 -1.90626,41.82943 35.48485,47.10116 35.48485,47.10116 l -3.01828,-8.07932 -8.9318,-8.96198 c 0,0 37.74362,12.69253 46.66755,15.49909 71.89338,13.10263 62.78347,5.5177 90.93806,25.84564 -7.47347,-16.92149 10.41596,-18.13987 -12.31513,-24.76711 7.91502,15.66066 -15.3954,-13.45386 43.16891,20.12763 34.4991,25.37796 24.8367,19.37774 32.76936,27.45975 19.0673,19.42629 53.48014,53.24285 53.48014,53.24285 v 0 c 0,0 1.04371,-14.28782 -2.97503,-21.98651 15.87748,7.88875 16.55822,17.14354 26.12109,17.09432 18.9644,-2.09044 13.83086,-18.96334 13.83086,-18.96334 17.3393,7.3172 -20.53784,-10.07843 20.1991,10.02744 12.1045,3.71186 19.0651,-15.60488 35.6892,-26.92254 17.3945,-11.84211 27.4536,-66.05642 40.1783,-88.19402 25.4496,-44.27533 37.0292,-99.31165 53.7534,-137.70101 27.8458,-107.4785 52.1871,-44.13449 50.8209,-25.00865 0.1313,97.38781 -41.4328,253.95913 -42.8047,286.44272 1.1665,20.33587 -3.3185,59.69813 4.0066,35.51434 0,0 -6.2534,6.74308 0,0 l -3.2378,13.36757 c -6.2564,25.83013 11.6679,49.37883 13.1081,78.16806 8.0459,21.77738 11.8085,64.85755 11.8085,64.85755 l -5.4713,-5.76225 -7.2742,-2.88469 c 0,0 -8.7904,49.95502 -60.2108,117.57189 -5.2584,-16.63874 -3.9224,-27.26401 -3.9224,-27.26401 -33.2392,23.24387 -82.9637,25.45685 -128.94336,24.49464 -35.5155,8.2671 -79.24892,62.9175 -79.24892,62.9175 0,0 4.57678,-46.79507 2.3459,-42.29995 -28.38545,47.62445 -39.31083,83.89355 -118.49422,149.24525 -4.82416,3.6243 -28.53758,14.7196 -28.53758,14.7196 0,0 12.67357,-28.1687 8.84474,-24.5606 -54.17042,32.51 -102.53658,32.7549 -152.35698,40.0581 -5.46523,-0.1155 5.31787,0.3543 0,0 -3.83795,-0.2561 -33.28535,5.9665 -55.61186,8.7049 -18.02922,2.2111 -33.22722,0.2194 -37.29964,0.4472 z"
       id="path34-3-6-8-4" /><g
       id="g4809-3-3-8-6"
       transform="matrix(1.6401115,0,0,1.4922593,1950.8678,113.19905)"
       style="display:inline;fill:#000000;fill-opacity:1;stroke:none"><g
         style="display:inline"
         id="g4562-1-3-8-1"><ellipse
           transform="scale(1,-1)"
           ry="21.133631"
           rx="17.227949"
           cy="-405.74997"
           cx="-546.75"
           id="path8022-1-8-8-8-1"
           style="display:inline;opacity:0.93000034;fill:#ffffff;fill-opacity:1;fill-rule:nonzero;stroke:#f8fbf8;stroke-width:8.74322987;stroke-miterlimit:4;stroke-dasharray:none;stroke-dashoffset:0;stroke-opacity:1" /></g><ellipse
         style="display:inline;opacity:1;fill:#060606;fill-opacity:0.02202645;fill-rule:nonzero;stroke:#000000;stroke-width:17.06751442;stroke-miterlimit:4;stroke-dasharray:none;stroke-dashoffset:0;stroke-opacity:1"
         id="path7017-3-9-6-9-5"
         cx="-477.17218"
         cy="-452.12289"
         transform="matrix(0.99580068,0.0915478,0.15431877,-0.98802111,0,0)"
         rx="8.6356592"
         ry="12.926704" /><ellipse
         style="display:inline;opacity:1;fill:#000000;fill-opacity:0;fill-rule:nonzero;stroke:#fbfaf8;stroke-width:3.18299723;stroke-miterlimit:4;stroke-dasharray:none;stroke-dashoffset:0;stroke-opacity:1"
         id="path7047-0-64-0-7-9"
         cx="-547.875"
         cy="-417.46872"
         rx="1.6953892"
         ry="1.6193955"
         transform="scale(1,-1)" /></g><g
       id="g879"><g
         id="g4577"><path
           id="path6845"
           transform="matrix(0.75000002,0,0,-0.75000002,0,1445.6694)"
           d="M 962.52734,75.792969 A 889.30006,889.30006 0 0 0 73.226562,965.09375 889.30006,889.30006 0 0 0 962.52734,1854.3965 889.30006,889.30006 0 0 0 1851.8281,965.09375 889.30006,889.30006 0 0 0 962.52734,75.792969 Z"
           style="display:inline;opacity:0.93000034;fill:#000000;fill-opacity:0;fill-rule:nonzero;stroke:#000000;stroke-width:76.91664124;stroke-miterlimit:4;stroke-dasharray:none;stroke-dashoffset:0;stroke-opacity:1" /><ellipse
           ry="2.9002428"
           rx="2.4859223"
           transform="scale(1,-1)"
           cy="-713.45978"
           cx="1056.1027"
           id="path4584"
           style="opacity:0;fill:#016303;fill-opacity:1;fill-rule:nonzero;stroke:#016303;stroke-width:13.60630035;stroke-miterlimit:4;stroke-dasharray:none;stroke-dashoffset:0;stroke-opacity:1" /><ellipse
           ry="1.0358011"
           rx="1.2429612"
           transform="scale(1,-1)"
           cy="-714.49561"
           cx="1056.517"
           id="path4588"
           style="opacity:0;fill:#040202;fill-opacity:0.00409833;fill-rule:nonzero;stroke:#016303;stroke-width:13.60630035;stroke-miterlimit:4;stroke-dasharray:none;stroke-dashoffset:0;stroke-opacity:1" /><rect
           transform="scale(1,-1)"
           y="-716.77435"
           x="1047.402"
           height="12.429611"
           width="19.887379"
           id="rect4748"
           style="opacity:1;fill:#000000;fill-opacity:1;fill-rule:nonzero;stroke:#000000;stroke-width:13.60630035;stroke-miterlimit:4;stroke-dasharray:none;stroke-dashoffset:0;stroke-opacity:1" /></g></g></g></svg>