<?xml version="1.0" encoding="UTF-8" standalone="no"?>
<svg
   xmlns:dc="http://purl.org/dc/elements/1.1/"
   xmlns:cc="http://creativecommons.org/ns#"
   xmlns:rdf="http://www.w3.org/1999/02/22-rdf-syntax-ns#"
   xmlns:svg="http://www.w3.org/2000/svg"
   xmlns="http://www.w3.org/2000/svg"
   width="206mm"
   height="36mm"
   viewBox="0 0 583.93699 102.04722"
   version="1.1"
   id="svg63">
  <metadata
     id="metadata69">
    <rdf:RDF>
      <cc:Work
         rdf:about="">
        <dc:format>image/svg+xml</dc:format>
        <dc:type
           rdf:resource="http://purl.org/dc/dcmitype/StillImage" />
        <dc:title></dc:title>
      </cc:Work>
    </rdf:RDF>
  </metadata>
  <defs
     id="defs67" />
  <g
     id="g1281">
    <g
       id="g1268">
      <path
         id="path48"
         d="M 4.2902563,3.912168 H 79.641819 v 57.117189 c 0,20.929687 -16.886718,37.605468 -37.640625,37.617187 C 21.22385,98.669981 4.2902563,81.8067 4.2902563,61.029357 c 0,0 0,-33.820314 0,-57.117189 z m 0,0"
         style="fill:none;stroke:#211e1e;stroke-width:2.14289999;stroke-linecap:butt;stroke-linejoin:miter;stroke-miterlimit:3.8636899;stroke-opacity:1" />
      <path
         id="path50"
         d="m 42.962133,35.74029 c 3.082029,-0.0939 5.542968,-1.23048 6.832029,-2.58984 0.773439,-0.70314 1.335939,-1.40625 1.59375,-2.40234 l -1.125,-0.3633 c -0.25782,0.80862 -0.644529,1.19532 -1.277343,1.78125 -1.207032,1.27737 -3.738282,2.33205 -6.65625,2.33205 -2.4375,0 -4.582032,-0.78516 -5.941407,-1.72266 -1.03125,-0.65625 -1.722657,-1.27734 -2.050779,-2.40234 l -1.113282,0.44532 c 0.351561,1.3242 1.242186,2.2617 2.449218,3.02343 1.417968,0.97266 3.445314,1.79295 5.941407,1.89843 v 12.97266 h -7.054689 v 1.28907 h 7.042968 v 23.00391 h 1.359378 V 50.00202 h 7.359372 V 48.71295 H 42.962133 Z M 39.317601,14.95122 c 2.132811,0 6.785154,0.246 8.953125,1.07814 2.4375,1.07811 3.75,2.23827 5.273436,4.82811 0.773439,1.54689 1.078125,2.08596 1.464843,4.14846 -2.753904,0 -9.128904,-0.70314 -7.746093,2.0742 0.15234,0.38673 1.980471,2.36718 4.605471,2.83593 3.375,0.69141 7.898436,0.0702 11.425779,-1.3125 1.207032,-0.46875 -0.339843,-1.95702 0.503907,-2.4492 0,0 0.609375,-0.30468 1.535157,-0.84375 -0.23439,-0.62109 -0.46875,-1.00782 -0.691407,-1.59375 l 4.617186,-2.39064 3.363282,6.80859 -4.6875,2.55471 -1.605468,-3.29298 c 0.960936,-0.72657 0.949218,-0.69141 2.542968,-1.76952 -0.08202,-0.30471 -0.15234,-0.375 -0.316404,-0.69141 -0.609378,0.1524 -2.8125,1.60545 -2.894532,1.83984 -0.304689,0.69141 0.1875,1.05468 0.03516,1.82811 -0.23436,0.99612 -0.972654,1.19532 -1.898436,1.51173 0,0.30468 0.08202,0.49218 0.15234,0.71484 1.160157,-0.2226 1.945314,-0.60936 2.332032,-1.85157 0.539061,0.70314 0.539061,1.17189 0.925782,1.62891 l -4.042971,2.44923 v -3.60939 c -0.304686,0 -0.644529,0.1524 -0.960936,0.2343 v 44.75391 c -1.617186,-0.1524 -4.523436,-0.90234 -5.601564,-2.36718 -1.207029,-1.76955 -0.984372,-3.98439 -0.984372,-6.89064 0,-0.38673 0.23436,-18.49218 -0.22266,-20.66016 -0.46875,-1.66407 -1.136721,-2.48436 -1.675782,-3.25782 -0.539061,-0.77343 -1.769532,-1.65234 -2.625,-1.95702 v 34.48827 l -17.308593,-0.024 V 39.86463 c -1.101564,0.2694 -1.734375,0.60939 -2.578125,1.39452 -1.078125,1.00782 -1.769532,2.33205 -1.769532,3.33987 0,0 -0.02343,16.35936 -0.02343,20.64843 0,4.14843 -0.46875,5.05077 -0.84375,5.50782 -1.546872,2.47263 -3.480468,3.29295 -6.105468,3.29295 0,-15.41016 0.105468,-38.25 0.105468,-41.37891 0,-1.52343 0.363282,-2.98827 -1.007811,-3.45702 0,1.08984 -0.08203,1.86327 -0.08203,3.14061 l -6.960936,-3.75 c 0.117186,-0.3867 0.210936,-0.41013 0.375,-0.79686 0.996093,0.2226 1.089843,0.48048 2.015625,0.78516 0,-0.0702 0.1875,-0.52734 0.1875,-0.52734 0,0 -1.171875,-0.77346 -1.945314,-0.77346 0.152346,-0.3867 0.140625,-0.375 0.292968,-0.45702 0.46875,-0.2226 1.160157,0.38673 2.167971,0.62109 0.07031,-0.30468 0.07031,-0.52734 0,-0.59766 -0.386721,-0.3867 -1.125,-0.42186 -1.898439,-0.80859 -0.257811,-0.2343 -1.558593,-0.89061 -2.941404,-1.89843 0.07031,-0.30468 0.140622,-0.36327 0.304686,-0.59766 0.375,0.2343 2.214843,1.39452 2.988282,1.78125 0.07031,0.0819 0.234375,-0.46875 0.152343,-0.46875 -0.539061,-0.46875 -1.464843,-0.85548 -2.90625,-1.98048 0.152343,-0.2343 0.304689,-0.41013 0.386718,-0.71484 1.125,0.69141 1.898439,1.39455 3.058593,2.21484 0.621096,0.45705 1.007814,0.62112 1.441407,1.16016 0.46875,0.85548 -0.363279,3.14064 2.085939,3.83205 l 0.03515,-0.72657 c -1.628913,-0.972 -0.925788,-2.49543 -1.546881,-3.42123 -0.386721,-0.60936 -2.320314,-1.46484 -1.394532,-2.75388 1.054686,0.77343 3.902343,3.14061 3.902343,3.22263 0.164061,0.45705 -0.539061,1.76955 0.75,2.58987 1.3125,0.85545 6.996093,2.08593 8.824218,1.86327 2.90625,-0.2343 6.199221,-0.92577 8.367189,-3.36327 0.375,0.45702 1.078125,1.58202 1.300782,1.66404 l 2.0625,-0.69141 c -0.03516,-0.1056 0.16407,-2.42577 0.16407,-4.81638 0,-3.75 0.04689,-4.61721 -0.421875,-5.56641 -0.785157,-1.03125 -0.972657,-1.47657 -3.011718,-2.4258"
         style="fill:#211e1e;fill-opacity:1;fill-rule:nonzero;stroke:none;stroke-width:3" />
      <path
         id="path52"
         d="m 36.317601,74.81061 c 0,0 0.761718,0 2.742186,0 0,2.70702 0,3.67968 0,3.67968 -0.15234,0.2343 -0.925782,0.38673 -2.671875,1.62891 -2.15625,1.53516 -3.058593,2.20311 -5.144529,3.51561 0,-3.75 3.140622,-5.68359 3.832029,-6.58593 0.539064,-0.69141 0.773439,-2.0742 1.242189,-2.23827"
         style="fill:#211e1e;fill-opacity:1;fill-rule:nonzero;stroke:none;stroke-width:3" />
      <path
         id="path54"
         d="m 36.317601,74.810606 c 0,0 0.761718,0 2.742186,0 0,2.707032 0,3.679688 0,3.679688 -0.152343,0.234375 -0.925779,0.386719 -2.671875,1.628906 -2.15625,1.535156 -3.058593,2.203125 -5.144531,3.515625 0,-3.75 3.140627,-5.683594 3.832031,-6.585937 0.539064,-0.691407 0.773439,-2.074219 1.242189,-2.238282 z m 0,0"
         style="fill:none;stroke:#211e1e;stroke-width:0.25709999;stroke-linecap:butt;stroke-linejoin:miter;stroke-miterlimit:3.86370993;stroke-opacity:1" />
      <path
         id="path56"
         d="m 45.212133,74.81061 c 2.085936,0 2.824218,0 2.824218,0 0.08202,0.0819 1.21875,2.40234 2.0625,3.14061 1.546875,1.78125 2.519532,1.46484 2.824218,5.68359 -1.746093,-0.99609 -2.671875,-1.76952 -4.417968,-3.14061 -1.851564,-1.38282 -2.707032,-1.46484 -3.09375,-2.00391 -0.22266,-0.38673 -0.17577,-1.33593 -0.19923,-3.67968"
         style="fill:#211e1e;fill-opacity:1;fill-rule:nonzero;stroke:none;stroke-width:3" />
      <path
         id="path58"
         d="m 45.21213,74.810606 c 2.085939,0 2.824221,0 2.824221,0 0.08203,0.08203 1.21875,2.402344 2.0625,3.140625 1.546875,1.78125 2.519529,1.464844 2.824218,5.683594 -1.746093,-0.996094 -2.671875,-1.769531 -4.417968,-3.140625 -1.851564,-1.382812 -2.707032,-1.464844 -3.09375,-2.003906 -0.222657,-0.386719 -0.175782,-1.335938 -0.199221,-3.679688 z m 0,0"
         style="fill:none;stroke:#211e1e;stroke-width:0.25709999;stroke-linecap:butt;stroke-linejoin:miter;stroke-miterlimit:3.86370993;stroke-opacity:1" />
      <path
         id="path60"
         d="m 36.962133,20.35356 v 0.0819 c 1.195311,0.60936 1.253904,0.59766 2.402343,-0.1056 -0.351564,-0.65625 -0.949221,-1.08984 -1.722657,-0.89061 -0.457032,0.1758 -0.621093,0.43359 -0.679686,0.91404 z m -0.515628,-3.66795 c -0.16407,0.98436 0.05859,1.08984 0.65625,1.6992 0.1875,-1.06638 0.22266,-0.97263 -0.65625,-1.6992 z m 0.972657,-0.024 c -0.16407,0.98436 -0.0117,1.08984 0.738282,1.66404 0.05859,-0.83202 0.24609,-0.96093 -0.738282,-1.66404 z m 1.019532,0.0939 c -0.16407,0.97263 -0.03516,1.01952 0.75,1.66404 0.05859,-0.83202 0.11718,-1.04295 -0.75,-1.66404 z m 1.019532,-0.0585 c -0.16407,0.97266 -0.05859,1.14846 0.738279,1.65237 0.05859,-0.82032 -0.03516,-0.9258 -0.738279,-1.65237 z m -2.578125,-1.3125 c 0.691404,-0.1641 1.558593,0.1524 2.273436,0.46875 0.972657,0.62112 2.226564,1.66407 2.460939,2.78907 0.23439,0.67968 -0.08202,9.45705 -0.08202,9.45705 l -0.17577,0.1173 c 0,0 -0.960936,-1.93359 -1.546875,-2.48439 -0.16407,-0.0819 -1.523436,0.246 -3.914061,0 -0.15234,-1.04295 -0.25782,-1.58202 -0.25782,-2.4492 -0.410157,-0.0702 -0.480468,-0.0822 -0.878907,-0.1641 0.796878,-3.99609 -0.527343,-6.58593 2.121096,-7.73439"
         style="fill:#211e1e;fill-opacity:1;fill-rule:evenodd;stroke:none;stroke-width:3" />
    </g>
    <text
       xml:space="preserve"
       style="font-style:normal;font-variant:normal;font-weight:normal;font-stretch:normal;font-size:47.99999237px;line-height:1.25;font-family:sans-serif;-inkscape-font-specification:'sans-serif, Normal';font-variant-ligatures:normal;font-variant-caps:normal;font-variant-numeric:normal;font-feature-settings:normal;text-align:start;letter-spacing:0px;word-spacing:0px;writing-mode:lr-tb;text-anchor:start;fill:#000000;fill-opacity:1;stroke:none;stroke-width:0.74999988"
       x="147.11906"
       y="39.369919"
       id="text1206-0"><tspan
         id="tspan1204-0"
         x="147.11906"
         y="39.369919"
         style="font-style:normal;font-variant:normal;font-weight:normal;font-stretch:normal;font-size:47.99999237px;font-family:sans-serif;-inkscape-font-specification:'sans-serif, Normal';font-variant-ligatures:normal;font-variant-caps:normal;font-variant-numeric:normal;font-feature-settings:normal;text-align:start;writing-mode:lr-tb;text-anchor:start;stroke-width:0.74999988">Landeshauptstadt</tspan><tspan
         x="147.11906"
         y="99.369911"
         style="font-style:normal;font-variant:normal;font-weight:normal;font-stretch:normal;font-size:47.99999237px;font-family:sans-serif;-inkscape-font-specification:'sans-serif, Normal';font-variant-ligatures:normal;font-variant-caps:normal;font-variant-numeric:normal;font-feature-settings:normal;text-align:start;writing-mode:lr-tb;text-anchor:start;stroke-width:0.74999988"
         id="tspan1208-4">München</tspan></text>
  </g>
</svg>
