<?xml version="1.0" encoding="UTF-8" standalone="no"?>
<svg
   xmlns:dc="http://purl.org/dc/elements/1.1/"
   xmlns:cc="http://creativecommons.org/ns#"
   xmlns:rdf="http://www.w3.org/1999/02/22-rdf-syntax-ns#"
   xmlns:svg="http://www.w3.org/2000/svg"
   xmlns="http://www.w3.org/2000/svg"
   xmlns:sodipodi="http://sodipodi.sourceforge.net/DTD/sodipodi-0.dtd"
   xmlns:inkscape="http://www.inkscape.org/namespaces/inkscape"
   version="1.0"
   width="1270pt"
   height="300pt"
   viewBox="0 0 1270 300"
   preserveAspectRatio="xMidYMid meet"
   id="svg8"
   sodipodi:docname="itm_logo.svg"
   inkscape:version="0.92.3 (unknown)">
  <metadata
     id="metadata14">
    <rdf:RDF>
      <cc:Work
         rdf:about="">
        <dc:format>image/svg+xml</dc:format>
        <dc:type
           rdf:resource="http://purl.org/dc/dcmitype/StillImage" />
        <dc:title />
      </cc:Work>
    </rdf:RDF>
  </metadata>
  <defs
     id="defs12" />
  <sodipodi:namedview
     pagecolor="#ffffff"
     bordercolor="#666666"
     borderopacity="1"
     objecttolerance="10"
     gridtolerance="10"
     guidetolerance="10"
     inkscape:pageopacity="0"
     inkscape:pageshadow="2"
     inkscape:window-width="1680"
     inkscape:window-height="995"
     id="namedview10"
     showgrid="false"
     showguides="false"
     inkscape:zoom="1.4142136"
     inkscape:cx="208.10667"
     inkscape:cy="133.35263"
     inkscape:window-x="-3"
     inkscape:window-y="-3"
     inkscape:window-maximized="1"
     inkscape:current-layer="layer2" />
  <g
     inkscape:groupmode="layer"
     id="layer2"
     inkscape:label="Layer 2"
     style="display:inline">
    <rect
       style="opacity:0.93999999;fill:#ffcc00;fill-opacity:1;stroke:none;stroke-width:5.18834686;stroke-miterlimit:4;stroke-dasharray:none;stroke-opacity:1"
       id="rect836"
       width="35.60815"
       height="42.455662"
       x="96.826721"
       y="-155.09842"
       transform="matrix(0.01780507,0.99984149,-0.99999321,0.00367426,0,0)" />
    <rect
       style="display:inline;opacity:0.93999999;fill:#ffcc00;fill-opacity:1;stroke:none;stroke-width:3.81602383;stroke-miterlimit:4;stroke-dasharray:none;stroke-opacity:1"
       id="rect836-3"
       width="32.436592"
       height="25.212387"
       x="124.40398"
       y="-149.65744"
       transform="matrix(0.01160733,0.99993263,-0.99998411,0.0056366,0,0)" />
  </g>
  <flowRoot
     xml:space="preserve"
     id="flowRoot30"
     style="font-style:normal;font-weight:normal;font-size:30px;line-height:1.25;font-family:sans-serif;letter-spacing:0px;word-spacing:0px;fill:#000000;fill-opacity:1;stroke:none;stroke-width:0.75"><flowRegion
       id="flowRegion32"
       style="stroke-width:0.75"><rect
         id="rect34"
         width="456.75"
         height="128.25"
         x="-4.5"
         y="-144.75"
         style="stroke-width:0.5625" /></flowRegion><flowPara
       id="flowPara36"
       style="stroke-width:0.75" /></flowRoot>  <path
     style="fill:#000000;stroke:none;stroke-width:0.1"
     inkscape:connector-curvature="0"
     id="path4"
     d="m 130.5,101.9 c -4.9,3 -6.8,5.8 -7.3,10.9 -0.4,4.1 0,5.2 2.3,8 3.3,3.9 8.7,5.7 13.5,4.5 2,-0.5 3.5,-1.6 3.5,-2.4 0,-1.1 -1.2,-1.3 -5.2,-1.1 -4.5,0.3 -5.6,0 -7.8,-2.2 -4.4,-4.4 -2.8,-12.3 3,-15.1 4.1,-1.9 5.8,-1.9 9.4,0 4.3,2.2 5.6,7.8 2.5,10.9 -2.3,2.3 -3.7,2 -3,-0.7 0.4,-1.2 0.9,-3.6 1.3,-5.3 l 0.5,-3.2 -4.6,0.2 c -5.1,0.2 -7.2,1.7 -8.5,6.3 -0.7,2.3 -0.5,3.7 0.6,5.2 1.5,2.2 5.7,2.9 6.8,1.1 0.4,-0.6 1.3,-0.5 2.6,0.3 2.5,1.6 6.8,-0.7 8.7,-4.6 2,-4.1 0,-10.3 -4.1,-12.7 -4,-2.5 -10.3,-2.5 -14.2,-0.1 z m 8.3,9.4 c 0.4,1.9 -2.3,5.7 -4,5.7 -1.5,0 -1.9,-2.6 -0.8,-5.4 1.1,-3.1 4.2,-3.3 4.8,-0.3 z" />
  <text
     xml:space="preserve"
     style="font-style:normal;font-variant:normal;font-weight:normal;font-stretch:normal;font-size:100px;line-height:1.25;font-family:sans-serif;-inkscape-font-specification:'sans-serif, Normal';font-variant-ligatures:normal;font-variant-caps:normal;font-variant-numeric:normal;font-feature-settings:normal;text-align:start;letter-spacing:0px;word-spacing:0px;writing-mode:lr-tb;text-anchor:start;fill:#000000;fill-opacity:1;stroke:none;stroke-width:0.75"
     x="332.9082"
     y="118.62695"
     id="text18-9"><tspan
       sodipodi:role="line"
       id="tspan16-7"
       x="332.9082"
       y="118.62695"
       style="font-style:normal;font-variant:normal;font-weight:normal;font-stretch:normal;font-size:100px;font-family:sans-serif;-inkscape-font-specification:'sans-serif, Normal';font-variant-ligatures:normal;font-variant-caps:normal;font-variant-numeric:normal;font-feature-settings:normal;text-align:start;writing-mode:lr-tb;text-anchor:start;stroke-width:0.75">München.</tspan><tspan
       sodipodi:role="line"
       x="332.9082"
       y="243.62695"
       style="font-style:normal;font-variant:normal;font-weight:bold;font-stretch:normal;font-size:100px;font-family:sans-serif;-inkscape-font-specification:'sans-serif, Bold';font-variant-ligatures:normal;font-variant-caps:normal;font-variant-numeric:normal;font-feature-settings:normal;text-align:start;writing-mode:lr-tb;text-anchor:start;stroke-width:0.75"
       id="tspan20-7">Digital. Erleben.</tspan></text>
  <flowRoot
     xml:space="preserve"
     id="flowRoot3783"
     style="font-style:normal;font-weight:normal;font-size:30px;line-height:1.25;font-family:sans-serif;letter-spacing:0px;word-spacing:0px;fill:#000000;fill-opacity:1;stroke:none;stroke-width:0.75"><flowRegion
       id="flowRegion3785"
       style="stroke-width:0.75"><rect
         id="rect3787"
         width="624"
         height="39.75"
         x="333.75"
         y="62.25"
         style="stroke-width:0.5625" /></flowRegion><flowPara
       id="flowPara3789"
       style="stroke-width:0.75" /></flowRoot>  <flowRoot
     xml:space="preserve"
     id="flowRoot3793"
     style="font-style:normal;font-weight:normal;font-size:30px;line-height:1.25;font-family:sans-serif;letter-spacing:0px;word-spacing:0px;fill:#000000;fill-opacity:1;stroke:none;stroke-width:0.75"><flowRegion
       id="flowRegion3795"
       style="stroke-width:0.75"><rect
         id="rect3797"
         width="1260.0642"
         height="369.10974"
         x="-161.22035"
         y="-459.43268"
         style="stroke-width:0.5625" /></flowRegion><flowPara
       id="flowPara3799"
       style="stroke-width:0.75" /></flowRoot>  <g
     inkscape:groupmode="layer"
     id="layer1"
     inkscape:label="Layer 1"
     style="display:inline">
    <path
       style="fill:#000000;stroke:none;stroke-width:0.1"
       inkscape:connector-curvature="0"
       id="path2"
       d="M 89,43.3 26.5,78.6 v 71.4 71.3 l 62.7,35.5 62.8,35.4 62.7,-35.5 62.8,-35.4 V 150 78.7 L 215,43.3 C 180.6,23.9 152.3,8 152,8 151.7,8 123.4,23.9 89,43.3 Z m 67,72.2 V 132 h -3.6 c -3.3,0 -4.7,1 -13.5,9.7 l -9.9,9.7 v -9.7 -9.7 h -7 -7 v -15.8 c 0,-8.7 0.3,-16.2 0.7,-16.5 0.3,-0.4 9.6,-0.7 20.5,-0.7 H 156 Z m 47.4,25.2 c 3.3,13.9 6.3,24.9 6.7,24.5 0.4,-0.4 3,-10.8 5.8,-23.2 2.9,-12.4 5.5,-23.5 5.8,-24.8 0.5,-2.2 0.6,-2.2 17.2,-2 l 16.6,0.3 v 38.5 38.5 l -9.2,0.3 -9.3,0.3 -0.1,-31.8 c 0,-20.3 -0.4,-31.1 -1,-29.8 -0.5,1.1 -4.5,15 -8.9,30.9 -4.5,15.9 -8.3,29.3 -8.6,29.8 -0.3,0.4 -4.7,0.8 -9.8,0.8 h -9.3 l -3.1,-11.8 c -1.7,-6.4 -5.5,-20.9 -8.4,-32.1 l -5.3,-20.4 -0.3,32.1 -0.2,32.2 h -9.5 -9.5 v -39 -39 l 17.2,0.2 17.2,0.3 z M 69,123 v 7 H 58.5 48 v -7 -7 H 58.5 69 Z m 45.5,16 h 5.5 v 6.5 6.5 h -5.5 -5.6 l 0.3,14.2 0.3,14.3 5.3,0.3 5.2,0.3 v 6.4 6.4 l -5.2,0.3 c -9.2,0.5 -18.7,-0.8 -21.6,-2.9 C 89,188.2 88.1,184 88.1,167.2 L 88,152 h -5 -5 v -6.5 -6.5 h 4.9 5 l 0.3,-4.1 0.3,-4.1 10,-3.8 10,-3.7 0.3,7.8 0.3,7.9 z M 69,166 v 27.1 L 58.8,192.8 48.5,192.5 48.2,165.7 48,139 H 58.5 69 Z" />
  </g>
</svg>
